<mxfile host="app.diagrams.net" agent="Mozilla/5.0 (Windows NT 10.0; Win64; x64) AppleWebKit/537.36 (KHTML, like Gecko) Chrome/134.0.0.0 YaBrowser/25.4.0.0 Safari/537.36" version="27.1.4">
  <diagram name="Страница — 1" id="mHHvL0ik2kSpvlpvObcH">
    <mxGraphModel dx="1828" dy="987" grid="1" gridSize="10" guides="1" tooltips="1" connect="1" arrows="1" fold="1" page="1" pageScale="1" pageWidth="827" pageHeight="1169" math="0" shadow="0">
      <root>
        <mxCell id="0" />
        <mxCell id="1" parent="0" />
        <mxCell id="v9J8zwX4k6g4E4tgRItc-2" value="" style="rounded=0;whiteSpace=wrap;html=1;fillColor=none;strokeColor=#b85450;" parent="1" vertex="1">
          <mxGeometry x="80" y="20" width="670" height="1510" as="geometry" />
        </mxCell>
        <mxCell id="v9J8zwX4k6g4E4tgRItc-3" value="" style="endArrow=none;html=1;rounded=0;entryX=0.5;entryY=0;entryDx=0;entryDy=0;exitX=0.5;exitY=1;exitDx=0;exitDy=0;fillColor=#f8cecc;strokeColor=#b85450;" parent="1" source="Ix0ffkWWZdktWy8GuwyT-15" target="v9J8zwX4k6g4E4tgRItc-2" edge="1">
          <mxGeometry width="50" height="50" relative="1" as="geometry">
            <mxPoint x="390" y="180" as="sourcePoint" />
            <mxPoint x="440" y="130" as="targetPoint" />
          </mxGeometry>
        </mxCell>
        <mxCell id="v9J8zwX4k6g4E4tgRItc-6" value="" style="endArrow=none;html=1;rounded=0;entryX=0.997;entryY=0.042;entryDx=0;entryDy=0;entryPerimeter=0;fillColor=#f8cecc;strokeColor=#b85450;" parent="1" target="v9J8zwX4k6g4E4tgRItc-2" edge="1">
          <mxGeometry width="50" height="50" relative="1" as="geometry">
            <mxPoint x="80" y="79" as="sourcePoint" />
            <mxPoint x="440" y="30" as="targetPoint" />
          </mxGeometry>
        </mxCell>
        <mxCell id="v9J8zwX4k6g4E4tgRItc-7" value="&lt;font face=&quot;Times New Roman&quot;&gt;&lt;span style=&quot;font-size: 36px;&quot;&gt;&lt;b&gt;ИИ&lt;/b&gt;&lt;/span&gt;&lt;/font&gt;" style="text;html=1;align=center;verticalAlign=middle;whiteSpace=wrap;rounded=0;" parent="1" vertex="1">
          <mxGeometry x="420" y="20" width="330" height="60" as="geometry" />
        </mxCell>
        <mxCell id="v9J8zwX4k6g4E4tgRItc-8" value="&lt;font face=&quot;Times New Roman&quot; style=&quot;font-size: 36px;&quot;&gt;&lt;b&gt;ИГРОК&lt;/b&gt;&lt;/font&gt;" style="text;html=1;align=center;verticalAlign=middle;whiteSpace=wrap;rounded=0;" parent="1" vertex="1">
          <mxGeometry x="80" y="20" width="330" height="60" as="geometry" />
        </mxCell>
        <mxCell id="v9J8zwX4k6g4E4tgRItc-9" value="" style="ellipse;shape=doubleEllipse;whiteSpace=wrap;html=1;aspect=fixed;fillColor=#dae8fc;strokeColor=#6c8ebf;" parent="1" vertex="1">
          <mxGeometry x="590" y="100" width="40" height="40" as="geometry" />
        </mxCell>
        <mxCell id="v9J8zwX4k6g4E4tgRItc-10" value="" style="ellipse;shape=doubleEllipse;whiteSpace=wrap;html=1;aspect=fixed;fillColor=#f8cecc;strokeColor=#b85450;" parent="1" vertex="1">
          <mxGeometry x="200" y="100" width="40" height="40" as="geometry" />
        </mxCell>
        <mxCell id="v9J8zwX4k6g4E4tgRItc-11" value="" style="rhombus;whiteSpace=wrap;html=1;fillColor=#f8cecc;strokeColor=#b85450;" parent="1" vertex="1">
          <mxGeometry x="180" y="160" width="80" height="80" as="geometry" />
        </mxCell>
        <mxCell id="Ix0ffkWWZdktWy8GuwyT-1" value="" style="rounded=1;whiteSpace=wrap;html=1;fillColor=#dae8fc;strokeColor=#6c8ebf;" vertex="1" parent="1">
          <mxGeometry x="490" y="160" width="240" height="80" as="geometry" />
        </mxCell>
        <mxCell id="Ix0ffkWWZdktWy8GuwyT-2" value="&lt;font face=&quot;Times New Roman&quot;&gt;&lt;span style=&quot;font-size: 28px;&quot;&gt;КАТСЦЕНА&lt;/span&gt;&lt;/font&gt;" style="text;html=1;align=center;verticalAlign=middle;whiteSpace=wrap;rounded=0;" vertex="1" parent="1">
          <mxGeometry x="525" y="170" width="170" height="60" as="geometry" />
        </mxCell>
        <mxCell id="Ix0ffkWWZdktWy8GuwyT-3" value="" style="rounded=1;whiteSpace=wrap;html=1;fillColor=#f8cecc;strokeColor=#b85450;" vertex="1" parent="1">
          <mxGeometry x="100" y="270" width="240" height="80" as="geometry" />
        </mxCell>
        <mxCell id="Ix0ffkWWZdktWy8GuwyT-4" value="&lt;font face=&quot;Times New Roman&quot;&gt;&lt;span style=&quot;font-size: 28px;&quot;&gt;НАЧАТЬ ДВИЖЕНИЕ&lt;/span&gt;&lt;/font&gt;" style="text;html=1;align=center;verticalAlign=middle;whiteSpace=wrap;rounded=0;" vertex="1" parent="1">
          <mxGeometry x="135" y="280" width="170" height="60" as="geometry" />
        </mxCell>
        <mxCell id="Ix0ffkWWZdktWy8GuwyT-7" value="" style="endArrow=classic;html=1;rounded=0;exitX=0.5;exitY=1;exitDx=0;exitDy=0;entryX=0.5;entryY=0;entryDx=0;entryDy=0;" edge="1" parent="1" source="v9J8zwX4k6g4E4tgRItc-10" target="v9J8zwX4k6g4E4tgRItc-11">
          <mxGeometry width="50" height="50" relative="1" as="geometry">
            <mxPoint x="240" y="145" as="sourcePoint" />
            <mxPoint x="290" y="95" as="targetPoint" />
          </mxGeometry>
        </mxCell>
        <mxCell id="Ix0ffkWWZdktWy8GuwyT-8" value="" style="endArrow=classic;html=1;rounded=0;" edge="1" parent="1" source="v9J8zwX4k6g4E4tgRItc-11" target="Ix0ffkWWZdktWy8GuwyT-3">
          <mxGeometry width="50" height="50" relative="1" as="geometry">
            <mxPoint x="244.82999999999998" y="240" as="sourcePoint" />
            <mxPoint x="244.82999999999998" y="260" as="targetPoint" />
          </mxGeometry>
        </mxCell>
        <mxCell id="Ix0ffkWWZdktWy8GuwyT-9" value="" style="endArrow=classic;html=1;rounded=0;exitX=1;exitY=0.5;exitDx=0;exitDy=0;entryX=0;entryY=0.5;entryDx=0;entryDy=0;" edge="1" parent="1" source="v9J8zwX4k6g4E4tgRItc-11" target="Ix0ffkWWZdktWy8GuwyT-1">
          <mxGeometry width="50" height="50" relative="1" as="geometry">
            <mxPoint x="350" y="250" as="sourcePoint" />
            <mxPoint x="350" y="270" as="targetPoint" />
          </mxGeometry>
        </mxCell>
        <mxCell id="Ix0ffkWWZdktWy8GuwyT-10" value="&lt;font face=&quot;Times New Roman&quot;&gt;просмотр&lt;/font&gt;" style="text;html=1;align=center;verticalAlign=middle;whiteSpace=wrap;rounded=0;fontSize=20;" vertex="1" parent="1">
          <mxGeometry x="350" y="170" width="60" height="30" as="geometry" />
        </mxCell>
        <mxCell id="Ix0ffkWWZdktWy8GuwyT-11" value="&lt;font face=&quot;Times New Roman&quot;&gt;пропуск&lt;/font&gt;" style="text;html=1;align=center;verticalAlign=middle;whiteSpace=wrap;rounded=0;fontSize=20;" vertex="1" parent="1">
          <mxGeometry x="125" y="230" width="60" height="30" as="geometry" />
        </mxCell>
        <mxCell id="Ix0ffkWWZdktWy8GuwyT-12" value="" style="rounded=1;whiteSpace=wrap;html=1;fillColor=#dae8fc;strokeColor=#6c8ebf;" vertex="1" parent="1">
          <mxGeometry x="490" y="270" width="240" height="80" as="geometry" />
        </mxCell>
        <mxCell id="Ix0ffkWWZdktWy8GuwyT-13" value="" style="endArrow=classic;html=1;rounded=0;exitX=1;exitY=0.5;exitDx=0;exitDy=0;entryX=0;entryY=0.5;entryDx=0;entryDy=0;" edge="1" parent="1" source="Ix0ffkWWZdktWy8GuwyT-3" target="Ix0ffkWWZdktWy8GuwyT-12">
          <mxGeometry width="50" height="50" relative="1" as="geometry">
            <mxPoint x="350" y="220" as="sourcePoint" />
            <mxPoint x="530" y="220" as="targetPoint" />
          </mxGeometry>
        </mxCell>
        <mxCell id="Ix0ffkWWZdktWy8GuwyT-14" value="&lt;font face=&quot;Times New Roman&quot;&gt;&lt;span style=&quot;font-size: 28px;&quot;&gt;БОЙ С ПРОТИВНИКАМИ&lt;/span&gt;&lt;/font&gt;" style="text;html=1;align=center;verticalAlign=middle;whiteSpace=wrap;rounded=0;" vertex="1" parent="1">
          <mxGeometry x="525" y="280" width="170" height="60" as="geometry" />
        </mxCell>
        <mxCell id="Ix0ffkWWZdktWy8GuwyT-16" value="" style="endArrow=none;html=1;rounded=0;entryX=0.5;entryY=0;entryDx=0;entryDy=0;exitX=0.5;exitY=1;exitDx=0;exitDy=0;fillColor=#f8cecc;strokeColor=#b85450;" edge="1" parent="1" source="v9J8zwX4k6g4E4tgRItc-2" target="Ix0ffkWWZdktWy8GuwyT-15">
          <mxGeometry width="50" height="50" relative="1" as="geometry">
            <mxPoint x="415" y="1080" as="sourcePoint" />
            <mxPoint x="415" y="20" as="targetPoint" />
          </mxGeometry>
        </mxCell>
        <mxCell id="Ix0ffkWWZdktWy8GuwyT-15" value="&lt;font face=&quot;Times New Roman&quot;&gt;атака&lt;/font&gt;" style="text;html=1;align=center;verticalAlign=middle;whiteSpace=wrap;rounded=0;fontSize=20;" vertex="1" parent="1">
          <mxGeometry x="384" y="280" width="60" height="30" as="geometry" />
        </mxCell>
        <mxCell id="Ix0ffkWWZdktWy8GuwyT-18" value="" style="rounded=1;whiteSpace=wrap;html=1;fillColor=#f8cecc;strokeColor=#b85450;" vertex="1" parent="1">
          <mxGeometry x="100" y="390" width="240" height="80" as="geometry" />
        </mxCell>
        <mxCell id="Ix0ffkWWZdktWy8GuwyT-19" value="&lt;font face=&quot;Times New Roman&quot;&gt;&lt;span style=&quot;font-size: 28px;&quot;&gt;ПРОДОЛЖИТЬ ДВИЖЕНИЕ&lt;/span&gt;&lt;/font&gt;" style="text;html=1;align=center;verticalAlign=middle;whiteSpace=wrap;rounded=0;" vertex="1" parent="1">
          <mxGeometry x="135" y="400" width="170" height="60" as="geometry" />
        </mxCell>
        <mxCell id="Ix0ffkWWZdktWy8GuwyT-20" value="" style="endArrow=classic;html=1;rounded=0;exitX=0;exitY=0.75;exitDx=0;exitDy=0;entryX=1;entryY=0.25;entryDx=0;entryDy=0;" edge="1" parent="1" source="Ix0ffkWWZdktWy8GuwyT-12" target="Ix0ffkWWZdktWy8GuwyT-18">
          <mxGeometry width="50" height="50" relative="1" as="geometry">
            <mxPoint x="450" y="310" as="sourcePoint" />
            <mxPoint x="550" y="310" as="targetPoint" />
            <Array as="points">
              <mxPoint x="410" y="330" />
              <mxPoint x="410" y="410" />
            </Array>
          </mxGeometry>
        </mxCell>
        <mxCell id="Ix0ffkWWZdktWy8GuwyT-21" value="" style="endArrow=classic;html=1;rounded=0;exitX=1;exitY=0.75;exitDx=0;exitDy=0;entryX=0;entryY=0.75;entryDx=0;entryDy=0;" edge="1" parent="1" source="Ix0ffkWWZdktWy8GuwyT-18" target="Ix0ffkWWZdktWy8GuwyT-22">
          <mxGeometry width="50" height="50" relative="1" as="geometry">
            <mxPoint x="365" y="440" as="sourcePoint" />
            <mxPoint x="460" y="440" as="targetPoint" />
          </mxGeometry>
        </mxCell>
        <mxCell id="Ix0ffkWWZdktWy8GuwyT-22" value="" style="rounded=1;whiteSpace=wrap;html=1;fillColor=#dae8fc;strokeColor=#6c8ebf;" vertex="1" parent="1">
          <mxGeometry x="490" y="390" width="240" height="80" as="geometry" />
        </mxCell>
        <mxCell id="Ix0ffkWWZdktWy8GuwyT-23" value="&lt;font face=&quot;Times New Roman&quot;&gt;&lt;span style=&quot;font-size: 28px;&quot;&gt;ДИАЛОГ С NPS1&lt;/span&gt;&lt;/font&gt;" style="text;html=1;align=center;verticalAlign=middle;whiteSpace=wrap;rounded=0;" vertex="1" parent="1">
          <mxGeometry x="525" y="400" width="170" height="60" as="geometry" />
        </mxCell>
        <mxCell id="Ix0ffkWWZdktWy8GuwyT-24" value="&lt;font face=&quot;Times New Roman&quot;&gt;взаимодействие с nps1&lt;/font&gt;" style="text;html=1;align=center;verticalAlign=middle;whiteSpace=wrap;rounded=0;fontSize=20;" vertex="1" parent="1">
          <mxGeometry x="384" y="430" width="60" height="30" as="geometry" />
        </mxCell>
        <mxCell id="Ix0ffkWWZdktWy8GuwyT-26" value="" style="rounded=1;whiteSpace=wrap;html=1;fillColor=#f8cecc;strokeColor=#b85450;" vertex="1" parent="1">
          <mxGeometry x="100" y="520" width="240" height="80" as="geometry" />
        </mxCell>
        <mxCell id="Ix0ffkWWZdktWy8GuwyT-27" value="&lt;font face=&quot;Times New Roman&quot;&gt;&lt;span style=&quot;font-size: 28px;&quot;&gt;ПРОДОЛЖИТЬ ДВИЖЕНИЕ&lt;/span&gt;&lt;/font&gt;" style="text;html=1;align=center;verticalAlign=middle;whiteSpace=wrap;rounded=0;" vertex="1" parent="1">
          <mxGeometry x="135" y="530" width="170" height="60" as="geometry" />
        </mxCell>
        <mxCell id="Ix0ffkWWZdktWy8GuwyT-28" value="" style="rounded=1;whiteSpace=wrap;html=1;fillColor=#dae8fc;strokeColor=#6c8ebf;" vertex="1" parent="1">
          <mxGeometry x="490" y="520" width="240" height="80" as="geometry" />
        </mxCell>
        <mxCell id="Ix0ffkWWZdktWy8GuwyT-29" value="&lt;font face=&quot;Times New Roman&quot;&gt;&lt;span style=&quot;font-size: 28px;&quot;&gt;БОЙ С ПРОТИВНИКАМИ&lt;/span&gt;&lt;/font&gt;" style="text;html=1;align=center;verticalAlign=middle;whiteSpace=wrap;rounded=0;" vertex="1" parent="1">
          <mxGeometry x="525" y="530" width="170" height="60" as="geometry" />
        </mxCell>
        <mxCell id="Ix0ffkWWZdktWy8GuwyT-30" value="" style="endArrow=classic;html=1;rounded=0;exitX=0.5;exitY=1;exitDx=0;exitDy=0;entryX=0.5;entryY=0;entryDx=0;entryDy=0;" edge="1" parent="1" source="Ix0ffkWWZdktWy8GuwyT-22" target="Ix0ffkWWZdktWy8GuwyT-26">
          <mxGeometry width="50" height="50" relative="1" as="geometry">
            <mxPoint x="590" y="410" as="sourcePoint" />
            <mxPoint x="440" y="490" as="targetPoint" />
            <Array as="points">
              <mxPoint x="610" y="490" />
              <mxPoint x="220" y="490" />
            </Array>
          </mxGeometry>
        </mxCell>
        <mxCell id="Ix0ffkWWZdktWy8GuwyT-31" value="" style="endArrow=classic;html=1;rounded=0;exitX=1;exitY=0.5;exitDx=0;exitDy=0;entryX=0;entryY=0.5;entryDx=0;entryDy=0;" edge="1" parent="1">
          <mxGeometry width="50" height="50" relative="1" as="geometry">
            <mxPoint x="340" y="560" as="sourcePoint" />
            <mxPoint x="490" y="560" as="targetPoint" />
          </mxGeometry>
        </mxCell>
        <mxCell id="Ix0ffkWWZdktWy8GuwyT-32" value="&lt;font face=&quot;Times New Roman&quot;&gt;атака&lt;/font&gt;" style="text;html=1;align=center;verticalAlign=middle;whiteSpace=wrap;rounded=0;fontSize=20;" vertex="1" parent="1">
          <mxGeometry x="384" y="530" width="60" height="30" as="geometry" />
        </mxCell>
        <mxCell id="Ix0ffkWWZdktWy8GuwyT-33" value="" style="rounded=1;whiteSpace=wrap;html=1;fillColor=#f8cecc;strokeColor=#b85450;" vertex="1" parent="1">
          <mxGeometry x="100" y="640" width="240" height="80" as="geometry" />
        </mxCell>
        <mxCell id="Ix0ffkWWZdktWy8GuwyT-34" value="&lt;font face=&quot;Times New Roman&quot;&gt;&lt;span style=&quot;font-size: 28px;&quot;&gt;ПРОДОЛЖИТЬ ДВИЖЕНИЕ&lt;/span&gt;&lt;/font&gt;" style="text;html=1;align=center;verticalAlign=middle;whiteSpace=wrap;rounded=0;" vertex="1" parent="1">
          <mxGeometry x="135" y="650" width="170" height="60" as="geometry" />
        </mxCell>
        <mxCell id="Ix0ffkWWZdktWy8GuwyT-35" value="" style="endArrow=classic;html=1;rounded=0;exitX=1;exitY=0.75;exitDx=0;exitDy=0;entryX=0;entryY=0.75;entryDx=0;entryDy=0;" edge="1" parent="1" source="Ix0ffkWWZdktWy8GuwyT-33" target="Ix0ffkWWZdktWy8GuwyT-36">
          <mxGeometry width="50" height="50" relative="1" as="geometry">
            <mxPoint x="365" y="690" as="sourcePoint" />
            <mxPoint x="460" y="690" as="targetPoint" />
          </mxGeometry>
        </mxCell>
        <mxCell id="Ix0ffkWWZdktWy8GuwyT-36" value="" style="rounded=1;whiteSpace=wrap;html=1;fillColor=#dae8fc;strokeColor=#6c8ebf;" vertex="1" parent="1">
          <mxGeometry x="490" y="640" width="240" height="80" as="geometry" />
        </mxCell>
        <mxCell id="Ix0ffkWWZdktWy8GuwyT-37" value="&lt;font face=&quot;Times New Roman&quot;&gt;&lt;span style=&quot;font-size: 28px;&quot;&gt;ДИАЛОГ С NPS2&lt;/span&gt;&lt;/font&gt;" style="text;html=1;align=center;verticalAlign=middle;whiteSpace=wrap;rounded=0;" vertex="1" parent="1">
          <mxGeometry x="525" y="650" width="170" height="60" as="geometry" />
        </mxCell>
        <mxCell id="Ix0ffkWWZdktWy8GuwyT-38" value="&lt;font face=&quot;Times New Roman&quot;&gt;взаимодействие с nps2&lt;/font&gt;" style="text;html=1;align=center;verticalAlign=middle;whiteSpace=wrap;rounded=0;fontSize=20;" vertex="1" parent="1">
          <mxGeometry x="384" y="680" width="60" height="30" as="geometry" />
        </mxCell>
        <mxCell id="Ix0ffkWWZdktWy8GuwyT-40" value="" style="endArrow=classic;html=1;rounded=0;exitX=0;exitY=0.75;exitDx=0;exitDy=0;entryX=1;entryY=0.25;entryDx=0;entryDy=0;" edge="1" parent="1">
          <mxGeometry width="50" height="50" relative="1" as="geometry">
            <mxPoint x="489" y="580" as="sourcePoint" />
            <mxPoint x="339" y="660" as="targetPoint" />
            <Array as="points">
              <mxPoint x="409" y="580" />
              <mxPoint x="409" y="660" />
            </Array>
          </mxGeometry>
        </mxCell>
        <mxCell id="Ix0ffkWWZdktWy8GuwyT-41" value="" style="rounded=1;whiteSpace=wrap;html=1;fillColor=#f8cecc;strokeColor=#b85450;" vertex="1" parent="1">
          <mxGeometry x="100" y="770" width="240" height="80" as="geometry" />
        </mxCell>
        <mxCell id="Ix0ffkWWZdktWy8GuwyT-42" value="&lt;font face=&quot;Times New Roman&quot;&gt;&lt;span style=&quot;font-size: 28px;&quot;&gt;ПРОДОЛЖИТЬ ДВИЖЕНИЕ&lt;/span&gt;&lt;/font&gt;" style="text;html=1;align=center;verticalAlign=middle;whiteSpace=wrap;rounded=0;" vertex="1" parent="1">
          <mxGeometry x="135" y="780" width="170" height="60" as="geometry" />
        </mxCell>
        <mxCell id="Ix0ffkWWZdktWy8GuwyT-43" value="" style="rounded=1;whiteSpace=wrap;html=1;fillColor=#dae8fc;strokeColor=#6c8ebf;" vertex="1" parent="1">
          <mxGeometry x="490" y="770" width="240" height="80" as="geometry" />
        </mxCell>
        <mxCell id="Ix0ffkWWZdktWy8GuwyT-44" value="&lt;font face=&quot;Times New Roman&quot;&gt;&lt;span style=&quot;font-size: 28px;&quot;&gt;БОЙ С ПРОТИВНИКАМИ&lt;/span&gt;&lt;/font&gt;" style="text;html=1;align=center;verticalAlign=middle;whiteSpace=wrap;rounded=0;" vertex="1" parent="1">
          <mxGeometry x="525" y="780" width="170" height="60" as="geometry" />
        </mxCell>
        <mxCell id="Ix0ffkWWZdktWy8GuwyT-45" value="" style="endArrow=classic;html=1;rounded=0;exitX=0.5;exitY=1;exitDx=0;exitDy=0;entryX=0.5;entryY=0;entryDx=0;entryDy=0;" edge="1" parent="1" target="Ix0ffkWWZdktWy8GuwyT-41">
          <mxGeometry width="50" height="50" relative="1" as="geometry">
            <mxPoint x="610" y="720" as="sourcePoint" />
            <mxPoint x="440" y="740" as="targetPoint" />
            <Array as="points">
              <mxPoint x="610" y="740" />
              <mxPoint x="220" y="740" />
            </Array>
          </mxGeometry>
        </mxCell>
        <mxCell id="Ix0ffkWWZdktWy8GuwyT-46" value="" style="endArrow=classic;html=1;rounded=0;exitX=1;exitY=0.5;exitDx=0;exitDy=0;entryX=0;entryY=0.5;entryDx=0;entryDy=0;" edge="1" parent="1">
          <mxGeometry width="50" height="50" relative="1" as="geometry">
            <mxPoint x="340" y="810" as="sourcePoint" />
            <mxPoint x="490" y="810" as="targetPoint" />
          </mxGeometry>
        </mxCell>
        <mxCell id="Ix0ffkWWZdktWy8GuwyT-47" value="&lt;font face=&quot;Times New Roman&quot;&gt;атака&lt;/font&gt;" style="text;html=1;align=center;verticalAlign=middle;whiteSpace=wrap;rounded=0;fontSize=20;" vertex="1" parent="1">
          <mxGeometry x="384" y="780" width="60" height="30" as="geometry" />
        </mxCell>
        <mxCell id="Ix0ffkWWZdktWy8GuwyT-48" value="" style="rounded=1;whiteSpace=wrap;html=1;fillColor=#f8cecc;strokeColor=#b85450;" vertex="1" parent="1">
          <mxGeometry x="100" y="890" width="240" height="80" as="geometry" />
        </mxCell>
        <mxCell id="Ix0ffkWWZdktWy8GuwyT-49" value="&lt;font face=&quot;Times New Roman&quot;&gt;&lt;span style=&quot;font-size: 28px;&quot;&gt;ПРОДОЛЖИТЬ ДВИЖЕНИЕ&lt;/span&gt;&lt;/font&gt;" style="text;html=1;align=center;verticalAlign=middle;whiteSpace=wrap;rounded=0;" vertex="1" parent="1">
          <mxGeometry x="135" y="900" width="170" height="60" as="geometry" />
        </mxCell>
        <mxCell id="Ix0ffkWWZdktWy8GuwyT-50" value="" style="endArrow=classic;html=1;rounded=0;exitX=1;exitY=0.75;exitDx=0;exitDy=0;entryX=0;entryY=0.75;entryDx=0;entryDy=0;" edge="1" parent="1" source="Ix0ffkWWZdktWy8GuwyT-48" target="Ix0ffkWWZdktWy8GuwyT-51">
          <mxGeometry width="50" height="50" relative="1" as="geometry">
            <mxPoint x="365" y="940" as="sourcePoint" />
            <mxPoint x="460" y="940" as="targetPoint" />
          </mxGeometry>
        </mxCell>
        <mxCell id="Ix0ffkWWZdktWy8GuwyT-51" value="" style="rounded=1;whiteSpace=wrap;html=1;fillColor=#dae8fc;strokeColor=#6c8ebf;" vertex="1" parent="1">
          <mxGeometry x="490" y="890" width="240" height="80" as="geometry" />
        </mxCell>
        <mxCell id="Ix0ffkWWZdktWy8GuwyT-52" value="&lt;font face=&quot;Times New Roman&quot;&gt;взаимодействие с nps3&lt;/font&gt;" style="text;html=1;align=center;verticalAlign=middle;whiteSpace=wrap;rounded=0;fontSize=20;" vertex="1" parent="1">
          <mxGeometry x="384" y="930" width="60" height="30" as="geometry" />
        </mxCell>
        <mxCell id="Ix0ffkWWZdktWy8GuwyT-53" value="" style="endArrow=classic;html=1;rounded=0;exitX=0;exitY=0.75;exitDx=0;exitDy=0;entryX=1;entryY=0.25;entryDx=0;entryDy=0;" edge="1" parent="1">
          <mxGeometry width="50" height="50" relative="1" as="geometry">
            <mxPoint x="489" y="830" as="sourcePoint" />
            <mxPoint x="339" y="910" as="targetPoint" />
            <Array as="points">
              <mxPoint x="409" y="830" />
              <mxPoint x="409" y="910" />
            </Array>
          </mxGeometry>
        </mxCell>
        <mxCell id="Ix0ffkWWZdktWy8GuwyT-54" value="&lt;font face=&quot;Times New Roman&quot;&gt;&lt;span style=&quot;font-size: 28px;&quot;&gt;ДИАЛОГ С NPS3&lt;/span&gt;&lt;/font&gt;" style="text;html=1;align=center;verticalAlign=middle;whiteSpace=wrap;rounded=0;" vertex="1" parent="1">
          <mxGeometry x="525" y="900" width="170" height="60" as="geometry" />
        </mxCell>
        <mxCell id="Ix0ffkWWZdktWy8GuwyT-55" value="" style="rounded=1;whiteSpace=wrap;html=1;fillColor=#f8cecc;strokeColor=#b85450;" vertex="1" parent="1">
          <mxGeometry x="100" y="1020" width="240" height="80" as="geometry" />
        </mxCell>
        <mxCell id="Ix0ffkWWZdktWy8GuwyT-56" value="&lt;font face=&quot;Times New Roman&quot;&gt;&lt;span style=&quot;font-size: 28px;&quot;&gt;ПРОДОЛЖИТЬ ДВИЖЕНИЕ&lt;/span&gt;&lt;/font&gt;" style="text;html=1;align=center;verticalAlign=middle;whiteSpace=wrap;rounded=0;" vertex="1" parent="1">
          <mxGeometry x="135" y="1030" width="170" height="60" as="geometry" />
        </mxCell>
        <mxCell id="Ix0ffkWWZdktWy8GuwyT-57" value="" style="endArrow=classic;html=1;rounded=0;exitX=1;exitY=0.5;exitDx=0;exitDy=0;entryX=0;entryY=0.5;entryDx=0;entryDy=0;" edge="1" parent="1" target="Ix0ffkWWZdktWy8GuwyT-58" source="Ix0ffkWWZdktWy8GuwyT-55">
          <mxGeometry width="50" height="50" relative="1" as="geometry">
            <mxPoint x="340" y="1065" as="sourcePoint" />
            <mxPoint x="490" y="1065" as="targetPoint" />
          </mxGeometry>
        </mxCell>
        <mxCell id="Ix0ffkWWZdktWy8GuwyT-58" value="" style="rounded=1;whiteSpace=wrap;html=1;fillColor=#dae8fc;strokeColor=#6c8ebf;" vertex="1" parent="1">
          <mxGeometry x="490" y="1020" width="240" height="80" as="geometry" />
        </mxCell>
        <mxCell id="Ix0ffkWWZdktWy8GuwyT-59" value="&lt;font face=&quot;Times New Roman&quot;&gt;взаимодействие боссом&lt;/font&gt;" style="text;html=1;align=center;verticalAlign=middle;whiteSpace=wrap;rounded=0;fontSize=20;" vertex="1" parent="1">
          <mxGeometry x="384" y="1045" width="60" height="30" as="geometry" />
        </mxCell>
        <mxCell id="Ix0ffkWWZdktWy8GuwyT-60" value="&lt;font face=&quot;Times New Roman&quot;&gt;&lt;span style=&quot;font-size: 28px;&quot;&gt;ДИАЛОГ С БОССОМ&lt;/span&gt;&lt;/font&gt;" style="text;html=1;align=center;verticalAlign=middle;whiteSpace=wrap;rounded=0;" vertex="1" parent="1">
          <mxGeometry x="525" y="1030" width="170" height="60" as="geometry" />
        </mxCell>
        <mxCell id="Ix0ffkWWZdktWy8GuwyT-62" value="" style="endArrow=classic;html=1;rounded=0;exitX=0.5;exitY=1;exitDx=0;exitDy=0;entryX=0.5;entryY=0;entryDx=0;entryDy=0;" edge="1" parent="1">
          <mxGeometry width="50" height="50" relative="1" as="geometry">
            <mxPoint x="610" y="970" as="sourcePoint" />
            <mxPoint x="220" y="1020" as="targetPoint" />
            <Array as="points">
              <mxPoint x="610" y="990" />
              <mxPoint x="220" y="990" />
            </Array>
          </mxGeometry>
        </mxCell>
        <mxCell id="Ix0ffkWWZdktWy8GuwyT-69" value="" style="rounded=1;whiteSpace=wrap;html=1;fillColor=#dae8fc;strokeColor=#6c8ebf;" vertex="1" parent="1">
          <mxGeometry x="490" y="1140" width="240" height="80" as="geometry" />
        </mxCell>
        <mxCell id="Ix0ffkWWZdktWy8GuwyT-70" value="" style="rounded=1;whiteSpace=wrap;html=1;fillColor=#dae8fc;strokeColor=#6c8ebf;" vertex="1" parent="1">
          <mxGeometry x="490" y="1260" width="240" height="80" as="geometry" />
        </mxCell>
        <mxCell id="Ix0ffkWWZdktWy8GuwyT-71" value="&lt;font face=&quot;Times New Roman&quot;&gt;&lt;span style=&quot;font-size: 28px;&quot;&gt;КАТСЦЕНА&lt;/span&gt;&lt;/font&gt;" style="text;html=1;align=center;verticalAlign=middle;whiteSpace=wrap;rounded=0;" vertex="1" parent="1">
          <mxGeometry x="525" y="1270" width="170" height="60" as="geometry" />
        </mxCell>
        <mxCell id="Ix0ffkWWZdktWy8GuwyT-72" value="&lt;font face=&quot;Times New Roman&quot;&gt;&lt;span style=&quot;font-size: 28px;&quot;&gt;ПОДСЧЁТ БАЛЛОВ&lt;/span&gt;&lt;/font&gt;" style="text;html=1;align=center;verticalAlign=middle;whiteSpace=wrap;rounded=0;" vertex="1" parent="1">
          <mxGeometry x="525" y="1150" width="170" height="60" as="geometry" />
        </mxCell>
        <mxCell id="Ix0ffkWWZdktWy8GuwyT-74" value="" style="endArrow=classic;html=1;rounded=0;exitX=0.5;exitY=1;exitDx=0;exitDy=0;entryX=0.5;entryY=0;entryDx=0;entryDy=0;" edge="1" parent="1">
          <mxGeometry width="50" height="50" relative="1" as="geometry">
            <mxPoint x="609.8299999999999" y="1100" as="sourcePoint" />
            <mxPoint x="609.8299999999999" y="1140" as="targetPoint" />
          </mxGeometry>
        </mxCell>
        <mxCell id="Ix0ffkWWZdktWy8GuwyT-75" value="" style="rounded=1;whiteSpace=wrap;html=1;fillColor=#f8cecc;strokeColor=#b85450;" vertex="1" parent="1">
          <mxGeometry x="100" y="1200" width="240" height="80" as="geometry" />
        </mxCell>
        <mxCell id="Ix0ffkWWZdktWy8GuwyT-76" value="&lt;font face=&quot;Times New Roman&quot;&gt;&lt;span style=&quot;font-size: 28px;&quot;&gt;ВЫВОД РЕЗУЛЬТАТА&lt;/span&gt;&lt;/font&gt;" style="text;html=1;align=center;verticalAlign=middle;whiteSpace=wrap;rounded=0;" vertex="1" parent="1">
          <mxGeometry x="135" y="1210" width="170" height="60" as="geometry" />
        </mxCell>
        <mxCell id="Ix0ffkWWZdktWy8GuwyT-77" value="" style="endArrow=classic;html=1;rounded=0;entryX=1;entryY=0.5;entryDx=0;entryDy=0;" edge="1" parent="1" target="Ix0ffkWWZdktWy8GuwyT-75">
          <mxGeometry width="50" height="50" relative="1" as="geometry">
            <mxPoint x="610" y="1240" as="sourcePoint" />
            <mxPoint x="610" y="1280" as="targetPoint" />
          </mxGeometry>
        </mxCell>
        <mxCell id="Ix0ffkWWZdktWy8GuwyT-78" value="" style="endArrow=none;html=1;rounded=0;exitX=0.5;exitY=0;exitDx=0;exitDy=0;entryX=0.5;entryY=1;entryDx=0;entryDy=0;" edge="1" parent="1" source="Ix0ffkWWZdktWy8GuwyT-70" target="Ix0ffkWWZdktWy8GuwyT-69">
          <mxGeometry width="50" height="50" relative="1" as="geometry">
            <mxPoint x="480" y="1220" as="sourcePoint" />
            <mxPoint x="530" y="1170" as="targetPoint" />
          </mxGeometry>
        </mxCell>
        <mxCell id="Ix0ffkWWZdktWy8GuwyT-79" value="" style="rounded=0;whiteSpace=wrap;html=1;fillColor=#60a917;strokeColor=#2D7600;fontColor=#ffffff;" vertex="1" parent="1">
          <mxGeometry x="290" y="1410" width="250" height="100" as="geometry" />
        </mxCell>
        <mxCell id="Ix0ffkWWZdktWy8GuwyT-80" value="&lt;font face=&quot;Times New Roman&quot;&gt;&lt;span style=&quot;font-size: 28px;&quot;&gt;ЗАКОНЧИТЬ ИГРУ&lt;/span&gt;&lt;/font&gt;" style="text;html=1;align=center;verticalAlign=middle;whiteSpace=wrap;rounded=0;" vertex="1" parent="1">
          <mxGeometry x="330" y="1430" width="170" height="60" as="geometry" />
        </mxCell>
        <mxCell id="Ix0ffkWWZdktWy8GuwyT-81" value="" style="endArrow=classic;html=1;rounded=0;exitX=0.5;exitY=1;exitDx=0;exitDy=0;entryX=0.5;entryY=0;entryDx=0;entryDy=0;" edge="1" parent="1" source="Ix0ffkWWZdktWy8GuwyT-75" target="Ix0ffkWWZdktWy8GuwyT-79">
          <mxGeometry width="50" height="50" relative="1" as="geometry">
            <mxPoint x="380" y="1460" as="sourcePoint" />
            <mxPoint x="430" y="1410" as="targetPoint" />
            <Array as="points">
              <mxPoint x="220" y="1330" />
              <mxPoint x="415" y="1330" />
            </Array>
          </mxGeometry>
        </mxCell>
      </root>
    </mxGraphModel>
  </diagram>
</mxfile>
